<?xml version="1.0" encoding="UTF-8" standalone="no"?>
<!DOCTYPE svg PUBLIC "-//W3C//DTD SVG 1.1//EN"
 "http://www.w3.org/Graphics/SVG/1.1/DTD/svg11.dtd">
<!-- Generated by graphviz version 2.40.1 (20161225.0304)
 -->
<!-- Title: dependencies Pages: 1 -->
<svg width="650pt" height="211pt"
 viewBox="0.00 0.00 650.00 211.00" xmlns="http://www.w3.org/2000/svg" xmlns:xlink="http://www.w3.org/1999/xlink">
<g id="graph0" class="graph" transform="scale(1 1) rotate(0) translate(4 207)">
<title>dependencies</title>
<polygon fill="#ffffff" stroke="transparent" points="-4,4 -4,-207 646,-207 646,4 -4,4"/>
<text text-anchor="start" x="300.0091" y="-42.4" font-family="sans-serif" font-weight="bold" font-size="14.00" fill="#000000">Legend</text>
<polygon fill="#ffffb3" stroke="transparent" points="87,-10 87,-30 107,-30 107,-10 87,-10"/>
<text text-anchor="start" x="110.629" y="-15.4" font-family="sans-serif" font-size="14.00" fill="#000000"> &#160;Declarations</text>
<polygon fill="#8dd3c7" stroke="transparent" points="200,-10 200,-30 220,-30 220,-10 200,-10"/>
<text text-anchor="start" x="223.7251" y="-15.4" font-family="sans-serif" font-size="14.00" fill="#000000"> &#160;Module</text>
<polygon fill="#80b1d3" stroke="transparent" points="286,-10 286,-30 306,-30 306,-10 286,-10"/>
<text text-anchor="start" x="309.7812" y="-15.4" font-family="sans-serif" font-size="14.00" fill="#000000"> &#160;Bootstrap</text>
<polygon fill="#fdb462" stroke="transparent" points="383,-10 383,-30 403,-30 403,-10 383,-10"/>
<text text-anchor="start" x="406.6732" y="-15.4" font-family="sans-serif" font-size="14.00" fill="#000000"> &#160;Providers</text>
<polygon fill="#fb8072" stroke="transparent" points="479,-10 479,-30 499,-30 499,-10 479,-10"/>
<text text-anchor="start" x="502.7258" y="-15.4" font-family="sans-serif" font-size="14.00" fill="#000000"> &#160;Exports</text>
<g id="clust1" class="cluster">
<title>cluster_PrestationModule</title>
<polygon fill="none" stroke="#000000" stroke-dasharray="1,5" points="8,-70 8,-195 634,-195 634,-70 8,-70"/>
</g>
<g id="clust2" class="cluster">
<title>cluster_PrestationModule_declarations</title>
<polygon fill="none" stroke="#000000" points="317,-78 317,-130 626,-130 626,-78 317,-78"/>
</g>
<g id="clust5" class="cluster">
<title>cluster_PrestationModule_imports</title>
<polygon fill="none" stroke="#000000" points="16,-78 16,-130 309,-130 309,-78 16,-78"/>
</g>
<!-- ListPrestationComponent -->
<g id="node1" class="node">
<title>ListPrestationComponent</title>
<polygon fill="#ffffb3" stroke="#000000" points="617.5996,-122 458.4004,-122 458.4004,-86 617.5996,-86 617.5996,-122"/>
<text text-anchor="middle" x="538" y="-99.8" font-family="Times,serif" font-size="14.00" fill="#000000">ListPrestationComponent</text>
</g>
<!-- PrestationModule -->
<g id="node3" class="node">
<title>PrestationModule</title>
<polygon fill="#8dd3c7" stroke="#000000" points="359.5395,-187 356.5395,-191 335.5395,-191 332.5395,-187 244.4605,-187 244.4605,-151 359.5395,-151 359.5395,-187"/>
<text text-anchor="middle" x="302" y="-164.8" font-family="Times,serif" font-size="14.00" fill="#000000">PrestationModule</text>
</g>
<!-- ListPrestationComponent&#45;&gt;PrestationModule -->
<g id="edge1" class="edge">
<title>ListPrestationComponent&#45;&gt;PrestationModule</title>
<path fill="none" stroke="#000000" d="M538,-122.1061C538,-141.3391 538,-169 538,-169 538,-169 369.7321,-169 369.7321,-169"/>
<polygon fill="#000000" stroke="#000000" points="369.7321,-165.5001 359.7321,-169 369.7321,-172.5001 369.7321,-165.5001"/>
</g>
<!-- PrestaComponent -->
<g id="node2" class="node">
<title>PrestaComponent</title>
<polygon fill="#ffffb3" stroke="#000000" points="440.5409,-122 325.4591,-122 325.4591,-86 440.5409,-86 440.5409,-122"/>
<text text-anchor="middle" x="383" y="-99.8" font-family="Times,serif" font-size="14.00" fill="#000000">PrestaComponent</text>
</g>
<!-- PrestaComponent&#45;&gt;PrestationModule -->
<g id="edge2" class="edge">
<title>PrestaComponent&#45;&gt;PrestationModule</title>
<path fill="none" stroke="#000000" d="M342.4996,-122.1061C342.4996,-122.1061 342.4996,-140.991 342.4996,-140.991"/>
<polygon fill="#000000" stroke="#000000" points="338.9997,-140.9909 342.4996,-150.991 345.9997,-140.991 338.9997,-140.9909"/>
</g>
<!-- PrestationRoutingModule -->
<g id="node4" class="node">
<title>PrestationRoutingModule</title>
<polygon fill="#8dd3c7" stroke="#000000" points="301.1568,-122 298.1568,-126 277.1568,-126 274.1568,-122 140.8432,-122 140.8432,-86 301.1568,-86 301.1568,-122"/>
<text text-anchor="middle" x="221" y="-99.8" font-family="Times,serif" font-size="14.00" fill="#000000">PrestationRoutingModule</text>
</g>
<!-- PrestationRoutingModule&#45;&gt;PrestationModule -->
<g id="edge3" class="edge">
<title>PrestationRoutingModule&#45;&gt;PrestationModule</title>
<path fill="none" stroke="#000000" d="M272.7795,-122.1061C272.7795,-122.1061 272.7795,-140.991 272.7795,-140.991"/>
<polygon fill="#000000" stroke="#000000" points="269.2795,-140.9909 272.7795,-150.991 276.2795,-140.991 269.2795,-140.9909"/>
</g>
<!-- SharedModule -->
<g id="node5" class="node">
<title>SharedModule</title>
<polygon fill="#8dd3c7" stroke="#000000" points="122.4231,-122 119.4231,-126 98.4231,-126 95.4231,-122 23.5769,-122 23.5769,-86 122.4231,-86 122.4231,-122"/>
<text text-anchor="middle" x="73" y="-99.8" font-family="Times,serif" font-size="14.00" fill="#000000">SharedModule</text>
</g>
<!-- SharedModule&#45;&gt;PrestationModule -->
<g id="edge4" class="edge">
<title>SharedModule&#45;&gt;PrestationModule</title>
<path fill="none" stroke="#000000" d="M73,-122.1061C73,-141.3391 73,-169 73,-169 73,-169 234.2136,-169 234.2136,-169"/>
<polygon fill="#000000" stroke="#000000" points="234.2137,-172.5001 244.2136,-169 234.2136,-165.5001 234.2137,-172.5001"/>
</g>
</g>
</svg>
