<?xml version="1.0" encoding="UTF-8" standalone="no"?>
<!DOCTYPE svg PUBLIC "-//W3C//DTD SVG 1.1//EN"
 "http://www.w3.org/Graphics/SVG/1.1/DTD/svg11.dtd">
<!-- Generated by graphviz version 2.40.1 (20161225.0304)
 -->
<!-- Title: dependencies Pages: 1 -->
<svg width="504pt" height="284pt"
 viewBox="0.00 0.00 504.00 284.00" xmlns="http://www.w3.org/2000/svg" xmlns:xlink="http://www.w3.org/1999/xlink">
<g id="graph0" class="graph" transform="scale(1 1) rotate(0) translate(4 280)">
<title>dependencies</title>
<polygon fill="#ffffff" stroke="transparent" points="-4,4 -4,-280 500,-280 500,4 -4,4"/>
<text text-anchor="start" x="227.0091" y="-42.4" font-family="sans-serif" font-weight="bold" font-size="14.00" fill="#000000">Legend</text>
<polygon fill="#ffffb3" stroke="transparent" points="14,-10 14,-30 34,-30 34,-10 14,-10"/>
<text text-anchor="start" x="37.629" y="-15.4" font-family="sans-serif" font-size="14.00" fill="#000000"> &#160;Declarations</text>
<polygon fill="#8dd3c7" stroke="transparent" points="127,-10 127,-30 147,-30 147,-10 127,-10"/>
<text text-anchor="start" x="150.7251" y="-15.4" font-family="sans-serif" font-size="14.00" fill="#000000"> &#160;Module</text>
<polygon fill="#80b1d3" stroke="transparent" points="213,-10 213,-30 233,-30 233,-10 213,-10"/>
<text text-anchor="start" x="236.7812" y="-15.4" font-family="sans-serif" font-size="14.00" fill="#000000"> &#160;Bootstrap</text>
<polygon fill="#fdb462" stroke="transparent" points="310,-10 310,-30 330,-30 330,-10 310,-10"/>
<text text-anchor="start" x="333.6732" y="-15.4" font-family="sans-serif" font-size="14.00" fill="#000000"> &#160;Providers</text>
<polygon fill="#fb8072" stroke="transparent" points="406,-10 406,-30 426,-30 426,-10 406,-10"/>
<text text-anchor="start" x="429.7258" y="-15.4" font-family="sans-serif" font-size="14.00" fill="#000000"> &#160;Exports</text>
<g id="clust1" class="cluster">
<title>cluster_SharedModule</title>
<polygon fill="none" stroke="#000000" stroke-dasharray="1,5" points="45,-70 45,-268 451,-268 451,-70 45,-70"/>
</g>
<g id="clust2" class="cluster">
<title>cluster_SharedModule_declarations</title>
<polygon fill="none" stroke="#000000" points="59,-78 59,-130 439,-130 439,-78 59,-78"/>
</g>
<g id="clust7" class="cluster">
<title>cluster_SharedModule_exports</title>
<polygon fill="none" stroke="#000000" points="53,-208 53,-260 443,-260 443,-208 53,-208"/>
</g>
<!-- AddLineComponent -->
<g id="node1" class="node">
<title>AddLineComponent</title>
<polygon fill="#ffffb3" stroke="#000000" points="430.5968,-122 299.4032,-122 299.4032,-86 430.5968,-86 430.5968,-122"/>
<text text-anchor="middle" x="365" y="-99.8" font-family="Times,serif" font-size="14.00" fill="#000000">AddLineComponent</text>
</g>
<!-- SharedModule -->
<g id="node4" class="node">
<title>SharedModule</title>
<polygon fill="#8dd3c7" stroke="#000000" points="267.4231,-187 264.4231,-191 243.4231,-191 240.4231,-187 168.5769,-187 168.5769,-151 267.4231,-151 267.4231,-187"/>
<text text-anchor="middle" x="218" y="-164.8" font-family="Times,serif" font-size="14.00" fill="#000000">SharedModule</text>
</g>
<!-- AddLineComponent&#45;&gt;SharedModule -->
<g id="edge1" class="edge">
<title>AddLineComponent&#45;&gt;SharedModule</title>
<path fill="none" stroke="#000000" d="M387.2661,-122.0225C387.2661,-139.3734 387.2661,-163 387.2661,-163 387.2661,-163 277.4138,-163 277.4138,-163"/>
<polygon fill="#000000" stroke="#000000" points="277.4138,-159.5001 267.4138,-163 277.4138,-166.5001 277.4138,-159.5001"/>
</g>
<!-- TableauComponent -->
<g id="node2" class="node">
<title>TableauComponent</title>
<polygon fill="#ffffb3" stroke="#000000" points="281.4201,-122 154.5799,-122 154.5799,-86 281.4201,-86 281.4201,-122"/>
<text text-anchor="middle" x="218" y="-99.8" font-family="Times,serif" font-size="14.00" fill="#000000">TableauComponent</text>
</g>
<!-- TableauComponent&#45;&gt;SharedModule -->
<g id="edge2" class="edge">
<title>TableauComponent&#45;&gt;SharedModule</title>
<path fill="none" stroke="#000000" d="M218,-122.1061C218,-122.1061 218,-140.991 218,-140.991"/>
<polygon fill="#000000" stroke="#000000" points="214.5001,-140.9909 218,-150.991 221.5001,-140.991 214.5001,-140.9909"/>
</g>
<!-- TotalPipe -->
<g id="node3" class="node">
<title>TotalPipe</title>
<polygon fill="#ffffb3" stroke="#000000" points="137.4376,-122 66.5624,-122 66.5624,-86 137.4376,-86 137.4376,-122"/>
<text text-anchor="middle" x="102" y="-99.8" font-family="Times,serif" font-size="14.00" fill="#000000">TotalPipe</text>
</g>
<!-- TotalPipe&#45;&gt;SharedModule -->
<g id="edge3" class="edge">
<title>TotalPipe&#45;&gt;SharedModule</title>
<path fill="none" stroke="#000000" d="M112.2394,-122.0225C112.2394,-139.3734 112.2394,-163 112.2394,-163 112.2394,-163 158.5259,-163 158.5259,-163"/>
<polygon fill="#000000" stroke="#000000" points="158.5259,-166.5001 168.5259,-163 158.5259,-159.5001 158.5259,-166.5001"/>
</g>
<!-- AddLineComponent  -->
<g id="node5" class="node">
<title>AddLineComponent </title>
<polygon fill="#fb8072" stroke="#000000" points="435.0974,-252 300.9026,-252 300.9026,-216 435.0974,-216 435.0974,-252"/>
<text text-anchor="middle" x="368" y="-229.8" font-family="Times,serif" font-size="14.00" fill="#000000">AddLineComponent </text>
</g>
<!-- SharedModule&#45;&gt;AddLineComponent  -->
<g id="edge4" class="edge">
<title>SharedModule&#45;&gt;AddLineComponent </title>
<path fill="none" stroke="#000000" stroke-dasharray="5,2" d="M267.4306,-175C302.7257,-175 343.9839,-175 343.9839,-175 343.9839,-175 343.9839,-205.9775 343.9839,-205.9775"/>
<polygon fill="#000000" stroke="#000000" points="340.484,-205.9774 343.9839,-215.9775 347.484,-205.9775 340.484,-205.9774"/>
</g>
<!-- TableauComponent  -->
<g id="node6" class="node">
<title>TableauComponent </title>
<polygon fill="#fb8072" stroke="#000000" points="282.9194,-252 153.0806,-252 153.0806,-216 282.9194,-216 282.9194,-252"/>
<text text-anchor="middle" x="218" y="-229.8" font-family="Times,serif" font-size="14.00" fill="#000000">TableauComponent </text>
</g>
<!-- SharedModule&#45;&gt;TableauComponent  -->
<g id="edge5" class="edge">
<title>SharedModule&#45;&gt;TableauComponent </title>
<path fill="none" stroke="#000000" stroke-dasharray="5,2" d="M218,-187.1061C218,-187.1061 218,-205.991 218,-205.991"/>
<polygon fill="#000000" stroke="#000000" points="214.5001,-205.9909 218,-215.991 221.5001,-205.991 214.5001,-205.9909"/>
</g>
<!-- TotalPipe  -->
<g id="node7" class="node">
<title>TotalPipe </title>
<polygon fill="#fb8072" stroke="#000000" points="134.9362,-252 61.0638,-252 61.0638,-216 134.9362,-216 134.9362,-252"/>
<text text-anchor="middle" x="98" y="-229.8" font-family="Times,serif" font-size="14.00" fill="#000000">TotalPipe </text>
</g>
<!-- SharedModule&#45;&gt;TotalPipe  -->
<g id="edge6" class="edge">
<title>SharedModule&#45;&gt;TotalPipe </title>
<path fill="none" stroke="#000000" stroke-dasharray="5,2" d="M168.6901,-175C132.4554,-175 89.5106,-175 89.5106,-175 89.5106,-175 89.5106,-205.9775 89.5106,-205.9775"/>
<polygon fill="#000000" stroke="#000000" points="86.0107,-205.9774 89.5106,-215.9775 93.0107,-205.9775 86.0107,-205.9774"/>
</g>
</g>
</svg>
